Coordinates
version=1
nRows=17
nColumns=24
inDegrees=yes

Units are S.I. units (second, meters, Newtons, ...)
Angles are in degrees.

endheader
time	pelvis_tilt	pelvis_list	pelvis_rotation	pelvis_tx	pelvis_ty	pelvis_tz	hip_flexion_r	hip_adduction_r	hip_rotation_r	knee_angle_r	ankle_angle_r	subtalar_angle_r	mtp_angle_r	hip_flexion_l	hip_adduction_l	hip_rotation_l	knee_angle_l	ankle_angle_l	subtalar_angle_l	mtp_angle_l	lumbar_extension	lumbar_bending	lumbar_rotation
      4.19000000	     52.51719114	     -9.99622107	      3.36715942	      0.84920108	      1.07264090	     -0.23603922	     17.58815640	     -1.71571206	     -2.32380940	    -60.74046455	      9.14783600	     28.41251731	      0.00000000	     19.96989019	    -12.19085066	      2.48074742	    -70.27578749	      2.30694344	      1.46849994	      0.00000000	      0.00000000	      0.00000000	      0.00000000
      4.20000000	     52.53233081	    -10.00323672	      3.36899037	      0.84917546	      1.07266400	     -0.23596995	     17.50960757	     -1.82429090	     -2.05352682	    -60.17188016	      9.28066270	     28.25255974	      0.00000000	     20.00683732	    -12.21076630	      2.38483901	    -70.34125686	      2.23480868	      1.46929362	      0.00000000	      0.00000000	      0.00000000	      0.00000000
      4.21000000	     52.53798229	    -10.01397921	      3.37259108	      0.84916010	      1.07257199	     -0.23589870	     17.44779534	     -1.92685915	     -1.77015039	    -59.62615514	      9.38463700	     28.16866525	      0.00000000	     20.03515597	    -12.23384245	      2.30037118	    -70.38912868	      2.15685419	      1.47141639	      0.00000000	      0.00000000	      0.00000000	      0.00000000
      4.22000000	     52.53634658	    -10.03031774	      3.37459581	      0.84914750	      1.07250033	     -0.23581825	     17.40445537	     -2.02088816	     -1.47439117	    -59.11197068	      9.46100485	     28.14185960	      0.00000000	     20.05354541	    -12.25832430	      2.23086480	    -70.40797333	      2.08646919	      1.47738925	      0.00000000	      0.00000000	      0.00000000	      0.00000000
      4.23000000	     52.53102810	    -10.05052485	      3.37245391	      0.84912383	      1.07248559	     -0.23574151	     17.37583372	     -2.10538531	     -1.16940766	    -58.63541742	      9.51378222	     28.15107548	      0.00000000	     20.06626905	    -12.28257075	      2.17485050	    -70.39850245	      2.03477741	      1.48562500	      0.00000000	      0.00000000	      0.00000000	      0.00000000
      4.24000000	     52.52447499	    -10.07166790	      3.36589257	      0.84908207	      1.07249315	     -0.23567717	     17.35700266	     -2.18118366	     -0.85951944	    -58.19975241	      9.54880867	     28.17662857	      0.00000000	     20.07738932	    -12.30593059	      2.12868664	    -70.37018034	      2.00836158	      1.49096107	      0.00000000	      0.00000000	      0.00000000	      0.00000000
      4.25000000	     52.51813899	    -10.09134196	      3.35632450	      0.84902575	      1.07249837	     -0.23561860	     17.34425163	     -2.25007020	     -0.54909904	    -57.80658456	      9.57275068	     28.20305261	      0.00000000	     20.08900286	    -12.32827261	      2.08941367	    -70.33369106	      2.00812208	      1.48709866	      0.00000000	      0.00000000	      0.00000000	      0.00000000
      4.26000000	     52.51282940	    -10.10786880	      3.34551374	      0.84896391	      1.07249886	     -0.23555941	     17.33526059	     -2.31339361	     -0.24226601	    -57.45721595	      9.59211999	     28.22069283	      0.00000000	     20.10137002	    -12.34921541	      2.05613825	    -70.29506561	      2.02929678	      1.46967503	      0.00000000	      0.00000000	      0.00000000	      0.00000000
      4.27000000	     52.50889024	    -10.12059840	      3.33492738	      0.84890359	      1.07249485	     -0.23549775	     17.32881692	     -2.37192337	      0.05728024	    -57.15310976	      9.61235942	     28.22587854	      0.00000000	     20.11318320	    -12.36781174	      2.02982595	    -70.25433727	      2.06271057	      1.43845074	      0.00000000	      0.00000000	      0.00000000	      0.00000000
      4.28000000	     52.50647021	    -10.13000572	      3.32552263	      0.84884653	      1.07248233	     -0.23543364	     17.32437240	     -2.42664565	      0.34642364	    -56.89559471	      9.63704308	     28.21990426	      0.00000000	     20.12227527	    -12.38300039	      2.01235517	    -70.20780518	      2.09710677	      1.39767506	      0.00000000	      0.00000000	      0.00000000	      0.00000000
      4.29000000	     52.50557702	    -10.13697372	      3.31753437	      0.84878903	      1.07245927	     -0.23537034	     17.32125551	     -2.47898202	      0.62244484	    -56.68538426	      9.66734497	     28.20724354	      0.00000000	     20.12684410	    -12.39424801	      2.00546531	    -70.15146109	      2.12198514	      1.35469108	      0.00000000	      0.00000000	      0.00000000	      0.00000000
      4.30000000	     52.50594748	    -10.14203045	      3.31052828	      0.84872679	      1.07243526	     -0.23531488	     17.31816705	     -2.52996176	      0.88253319	    -56.52232177	      9.70203521	     28.19344992	      0.00000000	     20.12649282	    -12.40163620	      2.00980761	    -70.08344430	      2.13010747	      1.31760762	      0.00000000	      0.00000000	      0.00000000	      0.00000000
      4.31000000	     52.50703323	    -10.14521784	      3.30389276	      0.84866451	      1.07242624	     -0.23527976	     17.31359045	     -2.57925232	      1.12350337	    -56.40547920	      9.73818410	     28.18315090	      0.00000000	     20.12238551	    -12.40566311	      2.02447164	    -70.00461043	      2.11896580	      1.29296142	      0.00000000	      0.00000000	      0.00000000	      0.00000000
      4.32000000	     52.50798640	    -10.14682378	      3.29754197	      0.84861305	      1.07243520	     -0.23527456	     17.30683190	     -2.62526509	      1.34222128	    -56.33365664	      9.77234917	     28.17858588	      0.00000000	     20.11634322	    -12.40722664	      2.04725691	    -69.91765421	      2.09094387	      1.28397247	      0.00000000	      0.00000000	      0.00000000	      0.00000000
      4.33000000	     52.50773523	    -10.14788321	      3.29205663	      0.84857421	      1.07244646	     -0.23528801	     17.29858353	     -2.66606849	      1.53638948	    -56.30616649	      9.80169576	     28.17915071	      0.00000000	     20.10985201	    -12.40775306	      2.07564659	    -69.82573186	      2.05242555	      1.28959850	      0.00000000	      0.00000000	      0.00000000	      0.00000000
      4.34000000	     52.50569136	    -10.14941070	      3.28790359	      0.84854103	      1.07244392	     -0.23529141	     17.29046596	     -2.70003091	      1.70485875	    -56.32334438	      9.82467269	     28.18204839	      0.00000000	     20.10399395	    -12.40911835	      2.10799096	    -69.73135911	      2.01221964	      1.30454796	      0.00000000	      0.00000000	      0.00000000	      0.00000000
      4.35000000	     52.50243672	    -10.15163489	      3.28477412	      0.84851214	      1.07242748	     -0.23527156	     17.28395262	     -2.72613508	      1.84735644	    -56.38630640	      9.84122715	     28.18364325	      0.00000000	     20.09960508	    -12.41294157	      2.14391114	    -69.63623864	      1.97939645	      1.32061555	      0.00000000	      0.00000000	      0.00000000	      0.00000000
